<svg width="18" height="18" viewBox="0 0 18 18" fill="none" xmlns="http://www.w3.org/2000/svg">
<path d="M11.1569 16.7287H6.84313C2.93921 16.7287 1.27124 15.0608 1.27124 11.1569V6.84313C1.27124 2.93921 2.93921 1.27124 6.84313 1.27124H8.28104C8.57581 1.27124 8.82025 1.51568 8.82025 1.81046C8.82025 2.10523 8.57581 2.34967 8.28104 2.34967H6.84313C3.52875 2.34967 2.34967 3.52875 2.34967 6.84313V11.1569C2.34967 14.4712 3.52875 15.6503 6.84313 15.6503H11.1569C14.4712 15.6503 15.6503 14.4712 15.6503 11.1569V9.71894C15.6503 9.42417 15.8948 9.17973 16.1895 9.17973C16.4843 9.17973 16.7287 9.42417 16.7287 9.71894V11.1569C16.7287 15.0608 15.0608 16.7287 11.1569 16.7287Z" fill="#33363F"/>
<path d="M6.48374 13.0907C6.04518 13.0907 5.64257 12.9326 5.3478 12.645C4.99551 12.2927 4.84453 11.7822 4.92361 11.243L5.23276 9.07897C5.29028 8.66198 5.56348 8.12276 5.85825 7.82799L11.5236 2.16264C12.9543 0.73192 14.4066 0.73192 15.8373 2.16264C16.621 2.9463 16.9733 3.74434 16.9014 4.54237C16.8367 5.18943 16.4916 5.82211 15.8373 6.46917L10.172 12.1345C9.8772 12.4293 9.33799 12.7025 8.921 12.76L6.75695 13.0692C6.66348 13.0907 6.57002 13.0907 6.48374 13.0907ZM12.2857 2.92473L6.62034 8.59008C6.48374 8.72668 6.32557 9.04302 6.29681 9.22995L5.98766 11.394C5.95891 11.6025 6.00204 11.775 6.10989 11.8829C6.21773 11.9907 6.39028 12.0339 6.59878 12.0051L8.76283 11.696C8.94975 11.6672 9.27328 11.509 9.40269 11.3724L15.068 5.70708C15.5354 5.23976 15.7798 4.82277 15.8158 4.43453C15.8589 3.96721 15.6145 3.47113 15.068 2.91754C13.9177 1.76721 13.1269 2.09074 12.2857 2.92473Z" fill="#33363F"/>
<path d="M14.6437 7.43987C14.5934 7.43987 14.5431 7.43268 14.4999 7.4183C12.6091 6.88627 11.1065 5.38366 10.5744 3.49281C10.4953 3.20523 10.6607 2.91046 10.9483 2.82418C11.2359 2.7451 11.5306 2.91046 11.6097 3.19804C12.0411 4.72941 13.2561 5.94444 14.7875 6.37581C15.0751 6.4549 15.2404 6.75686 15.1614 7.04444C15.0966 7.28889 14.881 7.43987 14.6437 7.43987Z" fill="#33363F"/>
</svg>
