<svg width="18" height="19" viewBox="0 0 18 19" fill="none" xmlns="http://www.w3.org/2000/svg">
<path d="M15.7498 5.2976C15.7348 5.2976 15.7123 5.2976 15.6898 5.2976C11.7223 4.9001 7.76225 4.7501 3.83975 5.1476L2.30975 5.2976C1.99475 5.3276 1.71725 5.1026 1.68725 4.7876C1.65725 4.4726 1.88225 4.2026 2.18975 4.1726L3.71975 4.0226C7.70975 3.6176 11.7523 3.7751 15.8023 4.1726C16.1098 4.2026 16.3348 4.4801 16.3048 4.7876C16.2823 5.0801 16.0348 5.2976 15.7498 5.2976Z" fill="#FF0A5A"/>
<path d="M6.37482 4.54C6.34482 4.54 6.31482 4.54 6.27732 4.5325C5.97732 4.48 5.76732 4.1875 5.81982 3.8875L5.98482 2.905C6.10482 2.185 6.26982 1.1875 8.01732 1.1875H9.98232C11.7373 1.1875 11.9023 2.2225 12.0148 2.9125L12.1798 3.8875C12.2323 4.195 12.0223 4.4875 11.7223 4.5325C11.4148 4.585 11.1223 4.375 11.0773 4.075L10.9123 3.1C10.8073 2.4475 10.7848 2.32 9.98982 2.32H8.02482C7.22982 2.32 7.21482 2.425 7.10232 3.0925L6.92982 4.0675C6.88482 4.345 6.64482 4.54 6.37482 4.54Z" fill="#FF0A5A"/>
<path d="M11.4073 17.3124H6.5923C3.9748 17.3124 3.8698 15.8649 3.7873 14.6949L3.2998 7.14243C3.2773 6.83493 3.5173 6.56493 3.8248 6.54243C4.1398 6.52743 4.4023 6.75993 4.4248 7.06743L4.9123 14.6199C4.9948 15.7599 5.0248 16.1874 6.5923 16.1874H11.4073C12.9823 16.1874 13.0123 15.7599 13.0873 14.6199L13.5748 7.06743C13.5973 6.75993 13.8673 6.52743 14.1748 6.54243C14.4823 6.56493 14.7223 6.82743 14.6998 7.14243L14.2123 14.6949C14.1298 15.8649 14.0248 17.3124 11.4073 17.3124Z" fill="#FF0A5A"/>
<path d="M10.2448 13.1875H7.74731C7.43981 13.1875 7.18481 12.9325 7.18481 12.625C7.18481 12.3175 7.43981 12.0625 7.74731 12.0625H10.2448C10.5523 12.0625 10.8073 12.3175 10.8073 12.625C10.8073 12.9325 10.5523 13.1875 10.2448 13.1875Z" fill="#FF0A5A"/>
<path d="M10.8748 10.1875H7.12476C6.81726 10.1875 6.56226 9.9325 6.56226 9.625C6.56226 9.3175 6.81726 9.0625 7.12476 9.0625H10.8748C11.1823 9.0625 11.4373 9.3175 11.4373 9.625C11.4373 9.9325 11.1823 10.1875 10.8748 10.1875Z" fill="#FF0A5A"/>
</svg>
