<svg width="18" height="18" viewBox="0 0 18 18" fill="none" xmlns="http://www.w3.org/2000/svg">
<path d="M13.3052 17.0625H4.69524C2.82774 17.0625 1.31274 15.5475 1.31274 13.68V8.63251C1.31274 6.76501 2.82774 5.25 4.69524 5.25H13.3052C15.1727 5.25 16.6877 6.76501 16.6877 8.63251V9.71251C16.6877 10.02 16.4327 10.275 16.1252 10.275H14.6102C14.3477 10.275 14.1077 10.3725 13.9352 10.5525L13.9277 10.56C13.7177 10.7625 13.6202 11.04 13.6427 11.325C13.6877 11.82 14.1602 12.2175 14.7002 12.2175H16.1252C16.4327 12.2175 16.6877 12.4725 16.6877 12.78V13.6725C16.6877 15.5475 15.1727 17.0625 13.3052 17.0625ZM4.69524 6.375C3.45024 6.375 2.43774 7.38751 2.43774 8.63251V13.68C2.43774 14.925 3.45024 15.9375 4.69524 15.9375H13.3052C14.5502 15.9375 15.5627 14.925 15.5627 13.68V13.35H14.7002C13.5677 13.35 12.6077 12.51 12.5177 11.43C12.4577 10.815 12.6827 10.2075 13.1327 9.76501C13.5227 9.36751 14.0477 9.15001 14.6102 9.15001H15.5627V8.63251C15.5627 7.38751 14.5502 6.375 13.3052 6.375H4.69524Z" fill="#33363F"/>
<path d="M1.87524 9.87001C1.56774 9.87001 1.31274 9.61501 1.31274 9.30751V5.88005C1.31274 4.76255 2.01774 3.75 3.06024 3.3525L9.01524 1.1025C9.63025 0.870004 10.3127 0.952541 10.8452 1.32754C11.3852 1.70254 11.7002 2.31004 11.7002 2.96254V5.81253C11.7002 6.12003 11.4452 6.37503 11.1377 6.37503C10.8302 6.37503 10.5752 6.12003 10.5752 5.81253V2.96254C10.5752 2.67754 10.4402 2.41503 10.2002 2.25003C9.96025 2.08503 9.67524 2.04752 9.40524 2.15252L3.45024 4.40252C2.84274 4.63502 2.43024 5.22755 2.43024 5.88005V9.30751C2.43774 9.62251 2.18274 9.87001 1.87524 9.87001Z" fill="#33363F"/>
<path d="M14.7003 13.3499C13.5678 13.3499 12.6078 12.5099 12.5178 11.4299C12.4578 10.8074 12.6828 10.1999 13.1328 9.7574C13.5153 9.3674 14.0403 9.1499 14.6028 9.1499H16.1628C16.9053 9.1724 17.4753 9.75737 17.4753 10.4774V12.0224C17.4753 12.7424 16.9053 13.3274 16.1853 13.3499H14.7003ZM16.1478 10.2749H14.6103C14.3478 10.2749 14.1078 10.3724 13.9353 10.5524C13.7178 10.7624 13.6128 11.0474 13.6428 11.3324C13.6878 11.8274 14.1603 12.2249 14.7003 12.2249H16.1703C16.2678 12.2249 16.3578 12.1349 16.3578 12.0224V10.4774C16.3578 10.3649 16.2678 10.2824 16.1478 10.2749Z" fill="#33363F"/>
<path d="M10.5002 9.5625H5.25024C4.94274 9.5625 4.68774 9.3075 4.68774 9C4.68774 8.6925 4.94274 8.4375 5.25024 8.4375H10.5002C10.8077 8.4375 11.0627 8.6925 11.0627 9C11.0627 9.3075 10.8077 9.5625 10.5002 9.5625Z" fill="#33363F"/>
</svg>
